SplineFontDB: 3.0
FontName: Hess
FullName: Hess
FamilyName: Hess
Weight: Regular
Copyright: Created by trashman with FontForge 2.0 (http://fontforge.sf.net)
UComments: "2010-9-25: Created." 
Version: 001.000
ItalicAngle: 0
UnderlinePosition: -100
UnderlineWidth: 50
Ascent: 750
Descent: 250
LayerCount: 3
Layer: 0 0 "Back"  1
Layer: 1 0 "Fore"  0
Layer: 2 0 "backup"  0
NeedsXUIDChange: 1
XUID: [1021 658 797806517 11115167]
OS2Version: 0
OS2_WeightWidthSlopeOnly: 0
OS2_UseTypoMetrics: 1
CreationTime: 1285454881
ModificationTime: 1285479255
OS2TypoAscent: 0
OS2TypoAOffset: 1
OS2TypoDescent: 0
OS2TypoDOffset: 1
OS2TypoLinegap: 0
OS2WinAscent: 0
OS2WinAOffset: 1
OS2WinDescent: 0
OS2WinDOffset: 1
HheadAscent: 0
HheadAOffset: 1
HheadDescent: 0
HheadDOffset: 1
OS2Vendor: 'PfEd'
MarkAttachClasses: 1
DEI: 91125
Encoding: UnicodeBmp
UnicodeInterp: none
NameList: Adobe Glyph List
DisplaySize: -48
AntiAlias: 1
FitToEm: 1
WinInfo: 60 12 5
BeginPrivate: 8
BlueValues 15 [-12 1 460 460]
BlueScale 8 0.039625
BlueShift 1 7
BlueFuzz 1 0
StdVW 4 [84]
StemSnapV 4 [84]
StdHW 4 [63]
StemSnapH 10 [45 46 63]
EndPrivate
BeginChars: 65536 53

StartChar: a
Encoding: 97 97 0
Width: 478
VWidth: 0
Flags: HWO
HStem: -12 71<341 429.939> -12 52<140.43 249.963> 418 42<178.433 287.983>
VStem: 22 101<57.5281 157.229> 45 92<321.237 377.769> 308 84<100.934 224.999 258.001 399.712>
LayerCount: 3
Fore
SplineSet
303 225 m 0x74
 290 225 237 207 212 197 c 0
 158 175 123 152 123 106 c 0
 123 68 152 40 187 40 c 0
 265 40 308 99 308 210 c 0
 308 223 306 225 303 225 c 0x74
418 59 m 0xac
 433 59 443 68 453 68 c 0
 460 68 466 60 466 51 c 0
 466 37 446 18 422 5 c 0
 409 -2 392 -12 375 -12 c 0xac
 307 -12 313 60 311 60 c 0
 308 60 267 -12 157 -12 c 0
 89 -12 22 31 22 112 c 0x74
 22 158 48 192 92 208 c 0
 144 227 240 250 286 258 c 0
 308 262 308 262 308 282 c 2
 308 348 l 2
 308 384 282 418 242 418 c 0
 184 418 145 381 137 323 c 0
 136 313 134 291 124 291 c 0
 109 291 74 308 53 321 c 0
 45 326 45 334 45 342 c 0
 45 409 157 460 262 460 c 0
 333 460 370 431 387 388 c 0
 396 367 396 333 396 320 c 0
 396 270 392 198 392 168 c 2
 392 102 l 2
 392 65 402 59 418 59 c 0xac
EndSplineSet
EndChar

StartChar: b
Encoding: 98 98 1
Width: 164
VWidth: 0
Flags: HW
LayerCount: 3
Fore
SplineSet
66 282 m 4
 66 291 73 298 82 298 c 4
 91 298 98 291 98 282 c 4
 98 273 91 266 82 266 c 4
 73 266 66 273 66 282 c 4
EndSplineSet
EndChar

StartChar: c
Encoding: 99 99 2
Width: 436
VWidth: 0
Flags: HW
LayerCount: 3
Fore
SplineSet
248 410 m 0
 171 410 111 344 111 246 c 0
 111 182 141 56 270 56 c 0
 355 56 388 109 396 109 c 0
 401 109 414 101 414 88 c 0
 414 79 352 -12 228 -12 c 0
 92 -12 26 97 26 211 c 0
 26 345 136 460 295 460 c 0
 335 460 400 444 400 409 c 0
 400 400 395 372 386 333 c 0
 384 324 378 316 369 316 c 0
 361 316 356 323 354 331 c 0
 337 384 304 410 248 410 c 0
EndSplineSet
EndChar

StartChar: d
Encoding: 100 100 3
Width: 164
VWidth: 0
Flags: HW
LayerCount: 3
Fore
SplineSet
66 282 m 4
 66 291 73 298 82 298 c 4
 91 298 98 291 98 282 c 4
 98 273 91 266 82 266 c 4
 73 266 66 273 66 282 c 4
EndSplineSet
EndChar

StartChar: e
Encoding: 101 101 4
Width: 436
VWidth: 0
Flags: W
HStem: -12 64<202.129 330.523> 419 41<185.024 296.267>
VStem: 26 88<148.487 312.39> 335 77<312.787 378.467>
LayerCount: 3
Fore
SplineSet
248 419 m 0
 170 419 116 338 116 260 c 1
 116 260 117 259 119 259 c 0
 143 259 335 313 335 324 c 0
 335 361 296 419 248 419 c 0
26 211 m 0
 26 346 128 460 261 460 c 0
 360 460 412 386 412 310 c 0
 412 305 411 297 409 294 c 0
 409 293 394 279 393 279 c 0
 285 257 114 228 114 226 c 0
 114 191 146 52 282 52 c 0
 346 52 385 92 395 92 c 0
 400 92 410 83 410 75 c 0
 410 66 350 -12 225 -12 c 0
 97 -12 26 99 26 211 c 0
EndSplineSet
Layer: 2
SplineSet
248 419 m 4
 170 419 116 338 116 260 c 5
 116 260 117 259 119 259 c 4
 143 259 335 313 335 324 c 4
 335 361 296 419 248 419 c 4
26 211 m 4
 26 346 128 460 261 460 c 4
 360 460 412 386 412 310 c 4
 412 305 411 297 409 294 c 4
 409 293 394 279 393 279 c 4
 285 257 114 228 114 226 c 4
 114 191 146 52 282 52 c 4
 346 52 385 92 395 92 c 4
 400 92 410 83 410 75 c 4
 410 69 396 52 372 34 c 4
 341 11 296 -12 225 -12 c 4
 97 -12 26 99 26 211 c 4
EndSplineSet
EndChar

StartChar: f
Encoding: 102 102 5
Width: 164
VWidth: 0
Flags: HW
LayerCount: 3
Fore
SplineSet
66 282 m 4
 66 291 73 298 82 298 c 4
 91 298 98 291 98 282 c 4
 98 273 91 266 82 266 c 4
 73 266 66 273 66 282 c 4
EndSplineSet
EndChar

StartChar: g
Encoding: 103 103 6
Width: 164
VWidth: 0
Flags: HW
LayerCount: 3
Fore
SplineSet
66 282 m 4
 66 291 73 298 82 298 c 4
 91 298 98 291 98 282 c 4
 98 273 91 266 82 266 c 4
 73 266 66 273 66 282 c 4
EndSplineSet
EndChar

StartChar: h
Encoding: 104 104 7
Width: 164
VWidth: 0
Flags: HW
LayerCount: 3
Fore
SplineSet
66 282 m 4
 66 291 73 298 82 298 c 4
 91 298 98 291 98 282 c 4
 98 273 91 266 82 266 c 4
 73 266 66 273 66 282 c 4
EndSplineSet
EndChar

StartChar: i
Encoding: 105 105 8
Width: 164
VWidth: 0
Flags: HW
LayerCount: 3
Fore
SplineSet
66 282 m 4
 66 291 73 298 82 298 c 4
 91 298 98 291 98 282 c 4
 98 273 91 266 82 266 c 4
 73 266 66 273 66 282 c 4
EndSplineSet
EndChar

StartChar: j
Encoding: 106 106 9
Width: 164
VWidth: 0
Flags: HW
LayerCount: 3
Fore
SplineSet
66 282 m 4
 66 291 73 298 82 298 c 4
 91 298 98 291 98 282 c 4
 98 273 91 266 82 266 c 4
 73 266 66 273 66 282 c 4
EndSplineSet
EndChar

StartChar: k
Encoding: 107 107 10
Width: 164
VWidth: 0
Flags: HW
LayerCount: 3
Fore
SplineSet
66 282 m 4
 66 291 73 298 82 298 c 4
 91 298 98 291 98 282 c 4
 98 273 91 266 82 266 c 4
 73 266 66 273 66 282 c 4
EndSplineSet
EndChar

StartChar: l
Encoding: 108 108 11
Width: 164
VWidth: 0
Flags: HW
LayerCount: 3
Fore
SplineSet
66 282 m 4
 66 291 73 298 82 298 c 4
 91 298 98 291 98 282 c 4
 98 273 91 266 82 266 c 4
 73 266 66 273 66 282 c 4
EndSplineSet
EndChar

StartChar: m
Encoding: 109 109 12
Width: 803
VWidth: 0
Flags: HW
HStem: -1 21G<29 45 185 199 320 336 476 490 611 627 762 776> 397 63<247.002 341.298 539.096 630.793>
VStem: 72 84<37.34 351.388 373.012 390.51> 363 84<37.34 351.388> 654 84<36.7812 373.094>
CounterMasks: 1 38
LayerCount: 3
Fore
SplineSet
157 280 m 0
 156 249 156 213 156 184 c 0
 156 138 156 75 165 50 c 0
 173 28 214 35 214 14 c 0
 214 1 204 -1 194 -1 c 0
 176 -1 151 1 114 1 c 0
 80 1 56 -1 34 -1 c 0
 24 -1 14 1 14 14 c 0
 14 35 52 25 63 50 c 0
 72 71 72 139 72 184 c 0
 72 243 72 305 71 365 c 0
 71 386 46 393 27 398 c 0
 22 399 14 403 14 412 c 0
 14 420 19 425 25 426 c 0
 40 429 64 433 84 439 c 0
 98 443 131 459 145 467 c 1
 149 466 154 463 157 460 c 1
 156 402 l 2
 156 389 155 373 159 373 c 0
 166 373 237 460 328 460 c 0
 429 460 441 370 445 370 c 0
 455 370 522 460 625 460 c 0
 726 460 738 389 738 325 c 2
 738 184 l 2
 738 138 738 75 747 50 c 0
 755 28 791 35 791 14 c 0
 791 1 781 -1 771 -1 c 0
 753 -1 724 1 696 1 c 0
 662 1 638 -1 616 -1 c 0
 606 -1 596 1 596 14 c 0
 596 35 634 25 645 50 c 0
 654 71 654 139 654 184 c 0
 654 211 654 251 653 280 c 0
 651 337 649 397 576 397 c 0
 516 397 468 368 453 322 c 0
 449 309 448 295 448 280 c 0
 447 252 447 213 447 184 c 0
 447 138 447 75 456 50 c 0
 464 28 505 35 505 14 c 0
 505 1 495 -1 485 -1 c 0
 467 -1 442 1 405 1 c 0
 371 1 347 -1 325 -1 c 0
 315 -1 305 1 305 14 c 0
 305 35 343 25 354 50 c 0
 363 71 363 139 363 184 c 0
 363 211 363 251 362 280 c 0
 360 348 355 397 285 397 c 0
 225 397 177 368 162 322 c 0
 158 309 157 295 157 280 c 0
EndSplineSet
EndChar

StartChar: n
Encoding: 110 110 13
Width: 533
VWidth: 0
Flags: HW
LayerCount: 3
Fore
SplineSet
462 325 m 2
 462 184 l 2
 462 138 462 75 471 50 c 0
 479 28 515 35 515 14 c 0
 515 1 505 -1 495 -1 c 0
 477 -1 448 1 420 1 c 0
 386 1 362 -1 340 -1 c 0
 330 -1 320 1 320 14 c 0
 320 35 358 25 369 50 c 0
 378 71 378 139 378 184 c 0
 378 211 378 251 377 280 c 0
 376 299 376 317 372 333 c 0
 363 372 339 397 290 397 c 0
 238 397 181 368 166 322 c 0
 162 309 162 295 162 280 c 0
 161 249 161 213 161 184 c 0
 161 138 161 75 170 50 c 0
 178 28 219 35 219 14 c 0
 219 1 209 -1 199 -1 c 0
 181 -1 156 1 119 1 c 0
 85 1 61 -1 39 -1 c 0
 29 -1 19 1 19 14 c 0
 19 35 57 25 68 50 c 0
 77 71 77 139 77 184 c 0
 77 243 77 295 76 355 c 0
 76 376 51 383 32 388 c 0
 27 389 19 393 19 402 c 0
 19 418 38 419 50 423 c 0
 83 435 102 443 135 463 c 2
 150 472 l 1
 154 471 159 468 162 465 c 1
 161 402 l 2
 161 389 160 373 164 373 c 0
 170 373 239 460 337 460 c 0
 434 460 462 393 462 325 c 2
EndSplineSet
EndChar

StartChar: o
Encoding: 111 111 14
Width: 486
VWidth: 0
Flags: HW
HStem: -12 46<182.629 313.829> 415 45<173.234 302.445>
VStem: 18 99<122.781 335.819> 364 99<111.789 332.334>
LayerCount: 3
Fore
SplineSet
240 415 m 0
 156 415 117 338 117 261 c 0
 117 159 142 34 244 34 c 0
 353 34 364 134 364 221 c 0
 364 313 330 415 240 415 c 0
463 214 m 0
 463 78 367 -12 240 -12 c 0
 99 -12 18 101 18 235 c 0
 18 375 121 460 244 460 c 4
 374 460 463 372 463 214 c 0
EndSplineSet
EndChar

StartChar: p
Encoding: 112 112 15
Width: 164
VWidth: 0
Flags: HW
LayerCount: 3
Fore
SplineSet
66 282 m 4
 66 291 73 298 82 298 c 4
 91 298 98 291 98 282 c 4
 98 273 91 266 82 266 c 4
 73 266 66 273 66 282 c 4
EndSplineSet
EndChar

StartChar: q
Encoding: 113 113 16
Width: 164
VWidth: 0
Flags: HW
LayerCount: 3
Fore
SplineSet
66 282 m 4
 66 291 73 298 82 298 c 4
 91 298 98 291 98 282 c 4
 98 273 91 266 82 266 c 4
 73 266 66 273 66 282 c 4
EndSplineSet
EndChar

StartChar: r
Encoding: 114 114 17
Width: 377
VWidth: 0
Flags: HW
LayerCount: 3
Fore
SplineSet
83 355 m 0
 80 376 54 383 35 388 c 0
 30 389 22 393 22 402 c 0
 22 418 41 419 53 423 c 0
 86 435 105 443 138 463 c 2
 153 472 l 1
 157 471 159 468 162 465 c 1
 161 374 l 2
 161 362 164 357 169 357 c 0
 175 357 183 364 190 374 c 0
 208 399 244 457 292 457 c 0
 309 457 356 446 356 424 c 0
 356 420 355 415 353 409 c 2
 336 367 l 2
 333 359 326 355 320 355 c 0
 312 355 280 373 266 373 c 0
 243 373 222 358 203 337 c 1
 190 321 176 314 175 280 c 0
 174 252 174 213 174 184 c 0
 174 138 174 75 183 50 c 0
 191 28 257 35 257 14 c 0
 257 1 247 -1 237 -1 c 0
 219 -1 169 1 132 1 c 0
 98 1 64 -1 42 -1 c 0
 32 -1 22 1 22 14 c 0
 22 35 70 25 81 50 c 0
 90 71 90 139 90 184 c 0
 90 211 90 251 89 280 c 0
 88 302 88 321 83 355 c 0
EndSplineSet
EndChar

StartChar: s
Encoding: 115 115 18
Width: 164
VWidth: 0
Flags: HW
LayerCount: 3
Fore
SplineSet
66 282 m 4
 66 291 73 298 82 298 c 4
 91 298 98 291 98 282 c 4
 98 273 91 266 82 266 c 4
 73 266 66 273 66 282 c 4
EndSplineSet
EndChar

StartChar: t
Encoding: 116 116 19
Width: 377
VWidth: 0
Flags: HW
LayerCount: 3
Fore
SplineSet
174 382 m 2
 174 172 l 2
 174 125 177 53 237 53 c 0
 278 53 322 90 330 90 c 0
 337 90 343 79 343 69 c 0
 343 65 342 58 337 54 c 0
 296 19 259 -12 202 -12 c 0
 164 -12 90 -4 90 135 c 2
 90 378 l 2
 90 391 89 393 78 393 c 2
 25 393 l 2
 18 393 14 399 14 408 c 0
 14 422 19 421 31 430 c 0
 54 446 74 457 97 482 c 0
 117 503 127 517 140 538 c 0
 147 550 154 564 168 564 c 0
 175 564 182 559 182 550 c 0
 182 536 176 485 176 474 c 2
 176 456 l 2
 176 445 176 445 187 445 c 2
 310 445 l 2
 324 445 325 443 325 424 c 0
 325 397 321 395 310 395 c 2
 186 395 l 2
 176 395 174 393 174 382 c 2
EndSplineSet
EndChar

StartChar: u
Encoding: 117 117 20
Width: 164
VWidth: 0
Flags: HW
LayerCount: 3
Fore
SplineSet
66 282 m 4
 66 291 73 298 82 298 c 4
 91 298 98 291 98 282 c 4
 98 273 91 266 82 266 c 4
 73 266 66 273 66 282 c 4
EndSplineSet
EndChar

StartChar: v
Encoding: 118 118 21
Width: 164
VWidth: 0
Flags: HW
LayerCount: 3
Fore
SplineSet
66 282 m 4
 66 291 73 298 82 298 c 4
 91 298 98 291 98 282 c 4
 98 273 91 266 82 266 c 4
 73 266 66 273 66 282 c 4
EndSplineSet
EndChar

StartChar: w
Encoding: 119 119 22
Width: 164
VWidth: 0
Flags: HW
LayerCount: 3
Fore
SplineSet
66 282 m 4
 66 291 73 298 82 298 c 4
 91 298 98 291 98 282 c 4
 98 273 91 266 82 266 c 4
 73 266 66 273 66 282 c 4
EndSplineSet
EndChar

StartChar: x
Encoding: 120 120 23
Width: 164
VWidth: 0
Flags: HW
LayerCount: 3
Fore
SplineSet
66 282 m 4
 66 291 73 298 82 298 c 4
 91 298 98 291 98 282 c 4
 98 273 91 266 82 266 c 4
 73 266 66 273 66 282 c 4
EndSplineSet
EndChar

StartChar: y
Encoding: 121 121 24
Width: 164
VWidth: 0
Flags: HW
LayerCount: 3
Fore
SplineSet
66 282 m 4
 66 291 73 298 82 298 c 4
 91 298 98 291 98 282 c 4
 98 273 91 266 82 266 c 4
 73 266 66 273 66 282 c 4
EndSplineSet
EndChar

StartChar: z
Encoding: 122 122 25
Width: 164
VWidth: 0
Flags: HW
LayerCount: 3
Fore
SplineSet
66 282 m 4
 66 291 73 298 82 298 c 4
 91 298 98 291 98 282 c 4
 98 273 91 266 82 266 c 4
 73 266 66 273 66 282 c 4
EndSplineSet
EndChar

